<?xml version="1.0" encoding="iso-8859-1"?>
<!-- Uploaded to: SVG Repo, www.svgrepo.com, Generator: SVG Repo Mixer Tools -->
<!DOCTYPE svg PUBLIC "-//W3C//DTD SVG 1.1//EN" "http://www.w3.org/Graphics/SVG/1.1/DTD/svg11.dtd">
<svg fill="#000000" version="1.1" id="Capa_1" xmlns="http://www.w3.org/2000/svg" xmlns:xlink="http://www.w3.org/1999/xlink" 
	 width="800px" height="800px" viewBox="0 0 483.585 483.585"
	 xml:space="preserve">
<g>
	<g id="Layer_2_12_">
		<g>
			<path d="M241.33,416.384c-7.623,0-13.799,6.18-13.799,13.803s6.176,13.805,13.799,13.805c7.626,0,13.804-6.182,13.804-13.805
				S248.957,416.384,241.33,416.384z"/>
			<path d="M99.84,234.144c13.306,23.465,32.811,44.793,55.491,60.56c27.166,18.884,57.245,28.864,86.984,28.864
				c29.742,0,59.823-9.982,86.991-28.871c22.668-15.76,42.166-37.079,55.469-60.532c16.377-0.9,40.432-9.681,40.432-53.451
				c0-28.042-9.812-47.182-27.812-54.723c-8.484-32.446-27.732-62.813-54.67-86.062C312.892,14.18,276.392,0,239.947,0
				c-36.288,0-72.033,14.252-100.65,40.131c-25.373,22.946-43.733,53.324-52.133,86.071c-18.488,7.953-29.704,28.19-29.704,54.511
				c0,15.813,3.746,28.567,11.134,37.91C76.03,228.027,86.781,233.352,99.84,234.144z M98.839,144.653l5.353-1.384
				c2.745-0.354,44.792-15.067,78.523-52.177c5.08-5.589,11.747-3.922,16.682,0.116c79.176,64.799,178.729,53.692,184.897,52.958
				l1.586,0.391c14.902,3.668,18.031,21.687,18.031,36.157c0,32.239-14.984,32.239-22.188,32.239c-0.627,0-1.412-0.068-2.32-0.146
				l-7.111-0.613l-3.27,6.344c-20.781,40.33-69.297,83.735-126.708,83.735c-57.402,0-105.917-43.395-126.701-83.714l-3.23-6.268
				l-7.591,0.573c-0.579,0.046-1.125,0.089-1.493,0.089c-16.287,0-24.545-10.847-24.545-32.239
				C78.755,173.473,80.203,149.473,98.839,144.653z"/>
			<path d="M187.345,208.022c13.123,0,23.796-10.652,23.796-23.813c0-13.143-10.673-23.812-23.796-23.812
				c-13.16,0-23.831,10.669-23.831,23.812C163.514,197.336,174.185,208.022,187.345,208.022z M192.227,174.942
				c6.742,0,12.185,5.475,12.185,12.204c0,6.76-5.442,12.236-12.185,12.236c-6.745,0-12.207-5.476-12.207-12.236
				C180.02,180.417,185.482,174.942,192.227,174.942z"/>
			<path d="M295.341,208.022c13.15,0,23.812-10.686,23.812-23.813c0-13.143-10.662-23.812-23.812-23.812
				c-13.146,0-23.789,10.669-23.789,23.812C271.552,197.336,282.177,208.022,295.341,208.022z M290.474,174.942
				c6.742,0,12.201,5.475,12.201,12.204c-0.014,6.76-5.459,12.236-12.201,12.236s-12.209-5.476-12.209-12.236
				C278.265,180.417,283.732,174.942,290.474,174.942z"/>
			<path d="M173.167,254.295c0,3.521,2.854,6.375,6.375,6.375c0.049,0,0.097-0.006,0.146-0.007
				c5.243,0.353,39.158-3.773,60.893-3.812c0.253,0,0.501,0.004,0.753,0.004s0.5-0.004,0.753-0.004
				c21.733,0.038,55.648,4.164,60.893,3.812c0.049,0.001,0.098,0.007,0.146,0.007c3.52,0,6.375-2.854,6.375-6.375
				c0-2.212-1.127-4.159-2.838-5.303c-6.631-5.256-32.718-19.646-64.488-19.879v-0.004c-0.029,0-0.059,0.001-0.088,0.002
				c-0.028,0-0.058-0.001-0.086-0.002v0.004c-0.224,0.001-0.443,0.013-0.666,0.016c-0.223-0.003-0.442-0.015-0.666-0.016v-0.004
				c-0.029,0-0.058,0.001-0.087,0.002c-0.029,0-0.058-0.001-0.087-0.002v0.004c-31.771,0.233-57.857,14.624-64.488,19.879
				C174.294,250.135,173.167,252.083,173.167,254.295z"/>
			<path d="M337.25,329.42l-3.881,0.05c-0.061,0-0.119-0.009-0.182-0.009c-0.102,0-0.199,0.014-0.301,0.016l-0.449,0.006
				l-0.029,0.019c-4.977,0.272-9.264,3.118-11.539,7.243l-0.016,0.009c-13.973,24.347-40.039,35.746-78.618,35.931
				c-0.149,0-0.294-0.006-0.442-0.008c-0.148,0.001-0.293,0.006-0.442,0.008c-38.579-0.185-64.646-11.584-78.619-35.931
				l-0.015-0.009c-2.275-4.125-6.563-6.969-11.539-7.243l-0.029-0.019l-0.45-0.006c-0.101-0.002-0.198-0.016-0.3-0.016
				c-0.062,0-0.121,0.008-0.182,0.009l-3.881-0.05c-40.458,0-89.27,36.251-89.27,80.814v73.351h184.085l0,0h0.642h0.642l0,0h184.084
				v-73.352C426.519,365.671,377.708,329.42,337.25,329.42z M402.857,459.924H242.071l0,0h-0.278h-0.278l0,0H80.729v-49.689
				c0-27.836,31.506-52.83,59.156-56.362c3.577-0.62,6.077,0.63,8.078,3.224c19.548,25.334,51.249,39.021,93.188,39.246v0.005
				c0.067,0,0.132-0.002,0.199-0.003c0.055,0,0.108,0.002,0.164,0.002v-0.004c0.094,0,0.185-0.004,0.278-0.004
				c0.094,0,0.185,0.004,0.278,0.004v0.004c0.057,0,0.109-0.002,0.164-0.002c0.066,0,0.133,0.002,0.199,0.003v-0.005
				c41.939-0.226,73.641-13.912,93.188-39.246c2.002-2.593,4.502-3.843,8.078-3.224c27.65,3.532,59.156,28.524,59.156,56.362v49.689
				H402.857z"/>
		</g>
	</g>
</g>
</svg>