<?xml version="1.0" encoding="iso-8859-1"?>
<!-- Uploaded to: SVG Repo, www.svgrepo.com, Generator: SVG Repo Mixer Tools -->
<!DOCTYPE svg PUBLIC "-//W3C//DTD SVG 1.1//EN" "http://www.w3.org/Graphics/SVG/1.1/DTD/svg11.dtd">
<svg fill="#000000" version="1.1" id="Capa_1" xmlns="http://www.w3.org/2000/svg" xmlns:xlink="http://www.w3.org/1999/xlink" 
	 width="800px" height="800px" viewBox="0 0 191.587 191.587"
	 xml:space="preserve">
<g>
	<g>
		<path d="M147.734,39.502c-2.135-1.818-5.122-1.66-7.67-0.664c-3.916-18.457-19.422-33.465-40.672-33.656
			c-18.558-0.166-35.581,14.998-41.3,32.753c-0.831-0.575-1.938-0.85-2.885-0.776c-2.785,0.218-5.014,2.471-6.142,4.906
			c-1.208,2.608-1.704,5.802-0.125,8.38c1.518,2.479,4.443,3.324,7.271,3.229c0.335,3.688,1.23,7.332,2.809,10.825
			c0.608,1.342,2.935,0.698,2.798-0.758c-1.005-10.708,0.853-21.906,5.582-31.213c11.589-1.13,19.128,11.779,30.741,12.002
			c12.327,0.236,22.359-8.142,34.468-9.18c2.845,8.805,2.822,18.748-0.636,27.576c-1.443,3.686,4.48,5.261,5.909,1.629
			c1.159-2.946,1.967-5.929,2.481-8.91c1.703,2.035,4.648,0.147,5.927-1.334c1.75-2.027,2.854-4.759,3.261-7.385
			C149.942,44.401,149.851,41.304,147.734,39.502z"/>
		<path d="M166.063,96.245c-0.183-6.414-1.076-12.726-0.095-19.127c0.197-1.282-0.078-2.855-1.415-3.479
			c-22.557-10.506-48.942,2.753-69.93,12.053c-15.25-16.296-43.06-22.97-64.499-17.394c-0.794-0.278-1.75-0.131-2.449,0.476
			c-3.098,2.688-1.998,8.537-1.652,12.153c0.5,5.219,1.34,10.622,2.51,15.729c0.047,0.208,0.145,0.38,0.264,0.529
			c-0.276,0.916,0.116,1.943,0.932,2.565c7.078,5.395,12.182,9.707,15.794,18.359c6.944,16.637-0.466,32.169-17.769,36.558
			c-1.282,0.325-2.21,1.579-2.201,2.89c0.025,3.516-1.004,9.534,2.516,11.69c0.799,0.489,1.797,0.396,2.543-0.082
			c14.291,0.559,28.537-0.56,42.19,4.534c5.154,1.923,10.193,4.146,15.111,6.608c1.695,0.849,3.326,1.803,4.914,2.836
			c0.56,0.334,1.033,0.759,1.418,1.275c0.025,0.037,0.042,0.062,0.065,0.097c0.227,1.215,1.556,2.218,2.797,1.788
			c1.939-0.671,2.796-1.547,2.908-2.535c3.166-0.487,5.684-2.078,8.639-3.464c5.163-2.423,10.701-4.037,16.221-5.407
			c11.66-2.892,23.94-3.626,35.823-1.798c1.956,0.301,3.921-0.797,3.922-2.987c0.001-3.071,1.051-8.194-0.853-10.916
			c-0.987-1.41-2.683-1.612-3.888-0.633c-1.02-0.057-2.004,0.044-3.208,0.122c-4.021,0.26-6.977-3.204-9.065-6.122
			c-3.778-5.281-5.72-12.309-5.975-18.734c-0.368-9.256,4.159-19.052,10.937-25.119c3.491-3.125,8.669-3.446,12.103-6.521
			c-0.012-0.007-0.023-0.014-0.035-0.02c0.145-0.142,0.287-0.302,0.433-0.494c0.762-1.004,0.42-2.128-0.334-2.899
			C165.532,98.316,166.099,97.473,166.063,96.245z M144.642,108.087c-6.673,7.306-10.255,19.895-8.79,29.649
			c1.294,8.612,4.767,17.782,11.697,23.408c2.673,2.169,7.143,3.602,10.596,2.69c-0.017,0.919,0.025,1.858,0.086,2.77
			c-10.862-1.171-21.581-0.408-32.339,1.927c-7.826,1.699-22.015,5.354-26.899,12.701c-0.366-0.448-0.83-0.904-1.343-1.361
			c2.636-28.857,0.834-58.406,0.513-87.32c-0.024-2.125-3.277-2.125-3.297,0c-0.265,28.406-0.791,57.15,0.528,85.554
			c-4.652-3.258-11.273-6.201-12.355-6.663c-17.112-7.312-32.867-7.462-51.117-6.391c0.032-1.716-0.146-3.518-0.273-5.244
			c13.844-4.208,22.721-14.892,22.373-29.976c-0.2-8.646-3.837-18.101-9.474-24.627c-2.636-3.053-4.786-5.119-8.371-6.871
			c-1.458-0.713-2.946-1.372-4.425-2.038c-0.061-0.028-0.107-0.044-0.163-0.068c0.764-4.519,0.143-9.201-0.155-13.742
			c-0.162-2.464-0.251-4.918-0.156-7.386c0.044-1.151,0.277-2.114,0.366-3.101c20.898-1.893,43.91,3.054,59.063,18.235
			c1.399,1.401,3.146,1.002,4.178-0.098c19.966-5.485,43.806-20.362,64.812-11.928c-0.561,6.03,0.037,11.921,0.239,18.038
			c0.023,0.7,0.242,1.271,0.574,1.723C154.634,98.876,148.16,104.235,144.642,108.087z"/>
		<path d="M30.964,118.438c2.133-4.666,2.394-10.799-2.43-13.869c-7.362-4.685-14.055-0.004-19.458,5.373
			c-5.657,5.63-10.336,14.01-8.771,22.274c0.828,4.374,2.87,7.896,5.636,10.812c3.147,4.113,7.533,7.264,12.304,8.216
			c0.279,0.056,0.549,0.054,0.81,0.024c8.642,2.138,15.33-4.266,12.306-12.336C40.024,134.254,39.844,122.582,30.964,118.438z
			 M24.794,118.552c-0.163,0.222-0.254,0.471-0.315,0.727c-0.045-0.005-0.088,0.01-0.133,0.008
			c1.815-3.855,2.995-7.809,2.281-11.032C28.426,110.879,25.666,117.363,24.794,118.552z"/>
		<path d="M164.482,103.187c-8.521,1.717-13.52,13.996-6.458,18.341c-6.374,3.942-7.87,12.374-1.168,16.268
			c-3.722,5.004,1.888,11.758,9.366,13.945c13.263,3.88,24.59-11.609,25.312-23.198C192.484,113.299,180.146,100.03,164.482,103.187
			z"/>
	</g>
</g>
</svg>